<svg aria-hidden="true" style="width:0;height:0;position:absolute;overflow:hidden" xmlns="http://www.w3.org/2000/svg"><defs><symbol id="envelope-empty" viewBox="0 0 32 32"><path d="M4 7c-.55 0-1 .45-1 1v1.381l10.781 8.85a3.495 3.495 0 0 0 4.444 0L29 9.381V8c0-.55-.45-1-1-1H4zm-1 6.262V24c0 .55.45 1 1 1h24c.55 0 1-.45 1-1V13.262l-8.875 7.287a6.5 6.5 0 0 1-8.25 0L3 13.262zM0 8c0-2.206 1.794-4 4-4h24c2.206 0 4 1.794 4 4v16c0 2.206-1.794 4-4 4H4c-2.206 0-4-1.794-4-4V8z"/></symbol><symbol id="envelope-solid" viewBox="0 0 32 32"><path d="M3 4a3.001 3.001 0 0 0-1.8 5.4l13.6 10.2a2.007 2.007 0 0 0 2.4 0L30.8 9.4A3.001 3.001 0 0 0 29 4H3zm-3 7v13c0 2.206 1.794 4 4 4h24c2.206 0 4-1.794 4-4V11L18.4 21.2a3.993 3.993 0 0 1-4.8 0L0 11z"/></symbol><symbol id="bars" viewBox="0 0 28 32"><path d="M0 6c0-1.106.894-2 2-2h24c1.106 0 2 .894 2 2s-.894 2-2 2H2C.894 8 0 7.106 0 6zm0 10c0-1.106.894-2 2-2h24c1.106 0 2 .894 2 2s-.894 2-2 2H2c-1.106 0-2-.894-2-2zm28 10c0 1.106-.894 2-2 2H2c-1.106 0-2-.894-2-2s.894-2 2-2h24c1.106 0 2 .894 2 2z"/></symbol><symbol id="download" viewBox="0 0 32 32"><path d="M18 2c0-1.106-.894-2-2-2s-2 .894-2 2v15.169l-4.588-4.588c-.781-.781-2.05-.781-2.831 0s-.781 2.05 0 2.831l8 8c.781.781 2.05.781 2.831 0l8-8c.781-.781.781-2.05 0-2.831s-2.05-.781-2.831 0L18 17.168V1.999zM4 22c-2.206 0-4 1.794-4 4v2c0 2.206 1.794 4 4 4h24c2.206 0 4-1.794 4-4v-2c0-2.206-1.794-4-4-4h-6.344l-2.831 2.831a3.997 3.997 0 0 1-5.656 0L10.344 22H4zm23 3.5a1.5 1.5 0 0 1 0 3 1.5 1.5 0 0 1 0-3z"/></symbol><symbol id="facebook" viewBox="0 0 32 32"><path d="M31.5 16C31.5 7.437 24.562.5 16 .5S.5 7.438.5 16c0 7.736 5.668 14.149 13.078 15.313V20.481H9.64V16h3.938v-3.415c0-3.884 2.313-6.03 5.854-6.03 1.696 0 3.47.303 3.47.303v3.813h-1.955c-1.925 0-2.526 1.195-2.526 2.421v2.909h4.299l-.688 4.481h-3.611v10.832c7.41-1.164 13.078-7.576 13.078-15.313z"/></symbol><symbol id="file-pdf" viewBox="0 0 28 32"><path d="M4 29h2v3H4c-2.206 0-4-1.794-4-4V4c0-2.206 1.794-4 4-4h10.344a4 4 0 0 1 2.831 1.169l5.656 5.656A4.002 4.002 0 0 1 24 9.656V18h-3v-8h-5c-1.106 0-2-.894-2-2V3H4c-.55 0-1 .45-1 1v24c0 .55.45 1 1 1zm6-7h1.5c1.931 0 3.5 1.569 3.5 3.5S13.431 29 11.5 29H11v2c0 .55-.45 1-1 1s-1-.45-1-1v-8c0-.55.45-1 1-1zm1.5 5c.831 0 1.5-.669 1.5-1.5s-.669-1.5-1.5-1.5H11v3h.5zm4.5-4c0-.55.45-1 1-1h1.5c1.656 0 3 1.344 3 3v4c0 1.656-1.344 3-3 3H17c-.55 0-1-.45-1-1v-8zm2 7h.5c.55 0 1-.45 1-1v-4c0-.55-.45-1-1-1H18v6zm6-8h3c.55 0 1 .45 1 1s-.45 1-1 1h-2v2h2c.55 0 1 .45 1 1s-.45 1-1 1h-2v3c0 .55-.45 1-1 1s-1-.45-1-1v-8c0-.55.45-1 1-1z"/></symbol><symbol id="instagram" viewBox="0 0 28 32"><path d="M14.006 8.813c-3.975 0-7.181 3.206-7.181 7.181s3.206 7.181 7.181 7.181 7.181-3.206 7.181-7.181-3.206-7.181-7.181-7.181zm0 11.85c-2.569 0-4.669-2.094-4.669-4.669s2.094-4.669 4.669-4.669 4.669 2.094 4.669 4.669-2.1 4.669-4.669 4.669zm9.15-12.144c0 .931-.75 1.675-1.675 1.675a1.675 1.675 0 1 1 1.675-1.675zm4.757 1.7c-.106-2.244-.619-4.231-2.262-5.869-1.637-1.638-3.625-2.15-5.869-2.263-2.313-.131-9.244-.131-11.556 0-2.237.106-4.225.619-5.869 2.256S.207 7.968.094 10.212c-.131 2.313-.131 9.244 0 11.556.106 2.244.619 4.231 2.263 5.869s3.625 2.15 5.869 2.262c2.313.131 9.244.131 11.556 0 2.244-.106 4.231-.619 5.869-2.262 1.637-1.637 2.15-3.625 2.262-5.869.131-2.313.131-9.238 0-11.55zM24.925 24.25a4.728 4.728 0 0 1-2.663 2.663c-1.844.731-6.219.563-8.256.563s-6.419.163-8.256-.563a4.728 4.728 0 0 1-2.663-2.663c-.731-1.844-.563-6.219-.563-8.256s-.163-6.419.563-8.256A4.72 4.72 0 0 1 5.75 5.076c1.844-.731 6.219-.563 8.256-.563s6.419-.162 8.256.563a4.727 4.727 0 0 1 2.663 2.662c.731 1.844.563 6.219.563 8.256s.169 6.419-.563 8.256z"/></symbol><symbol id="phone" viewBox="0 0 32 32"><path d="M10.306 1.538A2.492 2.492 0 0 0 7.343.088l-5.5 1.5A2.508 2.508 0 0 0-.001 4c0 15.462 12.537 28 28 28a2.508 2.508 0 0 0 2.413-1.844l1.5-5.5a2.493 2.493 0 0 0-1.45-2.962l-6-2.5a2.493 2.493 0 0 0-2.894.725L19.043 23A21.122 21.122 0 0 1 8.999 12.956l3.081-2.519c.856-.7 1.15-1.875.725-2.894l-2.5-6z"/></symbol><symbol id="xmark" viewBox="0 0 20 32"><path d="M19.413 9.412c.781-.781.781-2.05 0-2.831s-2.05-.781-2.831 0l-6.581 6.587-6.588-6.581c-.781-.781-2.05-.781-2.831 0s-.781 2.05 0 2.831l6.588 6.581-6.581 6.587c-.781.781-.781 2.05 0 2.831s2.05.781 2.831 0l6.581-6.588 6.587 6.581c.781.781 2.05.781 2.831 0s.781-2.05 0-2.831l-6.588-6.581 6.581-6.588z"/></symbol><symbol id="dog" viewBox="0 0 36 32"><path d="m19.35 9.906 1.444-8.669a1.484 1.484 0 0 1 2.65-.644L24.5 1.999h3.256c.794 0 1.556.319 2.119.881L31 3.999h3.5c.831 0 1.5.669 1.5 1.5v1.5c0 2.763-2.237 5-5 5h-4.331l-.319 1.906-7-4zm6.65 6.1V30c0 1.106-.894 2-2 2h-2c-1.106 0-2-.894-2-2v-7.2c-1.5.769-3.2 1.2-5 1.2s-3.5-.431-5-1.2V30c0 1.106-.894 2-2 2H6c-1.106 0-2-.894-2-2V15.613a6 6 0 0 1-3.7-4.156l-.237-.969c-.269-1.069.381-2.156 1.456-2.425s2.156.381 2.425 1.456l.244.969A1.994 1.994 0 0 0 6.126 12h12.863l7.012 4.006zM29 5a1 1 0 0 0-2 0 1 1 0 0 0 2 0z"/></symbol></defs></svg>