<svg aria-hidden="true" style="position: absolute; width: 0; height: 0; overflow: hidden;" version="1.1" xmlns="http://www.w3.org/2000/svg" xmlns:xlink="http://www.w3.org/1999/xlink">
<defs>
<symbol id="envelope-empty" viewBox="0 0 32 32">
<path d="M4 7c-0.55 0-1 0.45-1 1v1.381l10.781 8.85c1.294 1.063 3.15 1.063 4.444 0l10.775-8.85v-1.381c0-0.55-0.45-1-1-1h-24zM3 13.262v10.738c0 0.55 0.45 1 1 1h24c0.55 0 1-0.45 1-1v-10.738l-8.875 7.287c-2.4 1.969-5.856 1.969-8.25 0l-8.875-7.287zM0 8c0-2.206 1.794-4 4-4h24c2.206 0 4 1.794 4 4v16c0 2.206-1.794 4-4 4h-24c-2.206 0-4-1.794-4-4v-16z"></path>
</symbol>
<symbol id="envelope-solid" viewBox="0 0 32 32">
<path d="M3 4c-1.656 0-3 1.344-3 3 0 0.944 0.444 1.831 1.2 2.4l13.6 10.2c0.713 0.531 1.687 0.531 2.4 0l13.6-10.2c0.756-0.569 1.2-1.456 1.2-2.4 0-1.656-1.344-3-3-3h-26zM0 11v13c0 2.206 1.794 4 4 4h24c2.206 0 4-1.794 4-4v-13l-13.6 10.2c-1.425 1.069-3.375 1.069-4.8 0l-13.6-10.2z"></path>
</symbol>
<symbol id="bars" viewBox="0 0 28 32">
<path d="M0 6c0-1.106 0.894-2 2-2h24c1.106 0 2 0.894 2 2s-0.894 2-2 2h-24c-1.106 0-2-0.894-2-2zM0 16c0-1.106 0.894-2 2-2h24c1.106 0 2 0.894 2 2s-0.894 2-2 2h-24c-1.106 0-2-0.894-2-2zM28 26c0 1.106-0.894 2-2 2h-24c-1.106 0-2-0.894-2-2s0.894-2 2-2h24c1.106 0 2 0.894 2 2z"></path>
</symbol>
<symbol id="download" viewBox="0 0 32 32">
<path d="M18 2c0-1.106-0.894-2-2-2s-2 0.894-2 2v15.169l-4.588-4.588c-0.781-0.781-2.050-0.781-2.831 0s-0.781 2.050 0 2.831l8 8c0.781 0.781 2.050 0.781 2.831 0l8-8c0.781-0.781 0.781-2.050 0-2.831s-2.050-0.781-2.831 0l-4.581 4.587v-15.169zM4 22c-2.206 0-4 1.794-4 4v2c0 2.206 1.794 4 4 4h24c2.206 0 4-1.794 4-4v-2c0-2.206-1.794-4-4-4h-6.344l-2.831 2.831c-1.563 1.563-4.094 1.563-5.656 0l-2.825-2.831h-6.344zM27 25.5c0.828 0 1.5 0.672 1.5 1.5s-0.672 1.5-1.5 1.5v0c-0.828 0-1.5-0.672-1.5-1.5s0.672-1.5 1.5-1.5v0z"></path>
</symbol>
<symbol id="facebook" viewBox="0 0 32 32">
<path d="M31.5 16c0-8.563-6.938-15.5-15.5-15.5s-15.5 6.938-15.5 15.5c0 7.736 5.668 14.149 13.078 15.313v-10.832h-3.938v-4.481h3.938v-3.415c0-3.884 2.313-6.030 5.854-6.030 1.696 0 3.47 0.303 3.47 0.303v3.813h-1.955c-1.925 0-2.526 1.195-2.526 2.421v2.909h4.299l-0.688 4.481h-3.611v10.832c7.41-1.164 13.078-7.576 13.078-15.313z"></path>
</symbol>
<symbol id="file-pdf" viewBox="0 0 28 32">
<path d="M4 29h2v3h-2c-2.206 0-4-1.794-4-4v-24c0-2.206 1.794-4 4-4h10.344c1.063 0 2.081 0.419 2.831 1.169l5.656 5.656c0.75 0.75 1.169 1.769 1.169 2.831v8.344h-3v-8h-5c-1.106 0-2-0.894-2-2v-5h-10c-0.55 0-1 0.45-1 1v24c0 0.55 0.45 1 1 1zM10 22h1.5c1.931 0 3.5 1.569 3.5 3.5s-1.569 3.5-3.5 3.5h-0.5v2c0 0.55-0.45 1-1 1s-1-0.45-1-1v-8c0-0.55 0.45-1 1-1zM11.5 27c0.831 0 1.5-0.669 1.5-1.5s-0.669-1.5-1.5-1.5h-0.5v3h0.5zM16 23c0-0.55 0.45-1 1-1h1.5c1.656 0 3 1.344 3 3v4c0 1.656-1.344 3-3 3h-1.5c-0.55 0-1-0.45-1-1v-8zM18 30h0.5c0.55 0 1-0.45 1-1v-4c0-0.55-0.45-1-1-1h-0.5v6zM24 22h3c0.55 0 1 0.45 1 1s-0.45 1-1 1h-2v2h2c0.55 0 1 0.45 1 1s-0.45 1-1 1h-2v3c0 0.55-0.45 1-1 1s-1-0.45-1-1v-8c0-0.55 0.45-1 1-1z"></path>
</symbol>
<symbol id="instagram" viewBox="0 0 28 32">
<path d="M14.006 8.813c-3.975 0-7.181 3.206-7.181 7.181s3.206 7.181 7.181 7.181 7.181-3.206 7.181-7.181-3.206-7.181-7.181-7.181zM14.006 20.663c-2.569 0-4.669-2.094-4.669-4.669s2.094-4.669 4.669-4.669 4.669 2.094 4.669 4.669-2.1 4.669-4.669 4.669zM23.156 8.519c0 0.931-0.75 1.675-1.675 1.675-0.931 0-1.675-0.75-1.675-1.675s0.75-1.675 1.675-1.675 1.675 0.75 1.675 1.675zM27.913 10.219c-0.106-2.244-0.619-4.231-2.262-5.869-1.637-1.638-3.625-2.15-5.869-2.263-2.313-0.131-9.244-0.131-11.556 0-2.237 0.106-4.225 0.619-5.869 2.256s-2.15 3.625-2.263 5.869c-0.131 2.313-0.131 9.244 0 11.556 0.106 2.244 0.619 4.231 2.263 5.869s3.625 2.15 5.869 2.262c2.313 0.131 9.244 0.131 11.556 0 2.244-0.106 4.231-0.619 5.869-2.262 1.637-1.637 2.15-3.625 2.262-5.869 0.131-2.313 0.131-9.238 0-11.55zM24.925 24.25c-0.488 1.225-1.431 2.169-2.663 2.663-1.844 0.731-6.219 0.563-8.256 0.563s-6.419 0.163-8.256-0.563c-1.225-0.488-2.169-1.431-2.663-2.663-0.731-1.844-0.563-6.219-0.563-8.256s-0.163-6.419 0.563-8.256c0.487-1.225 1.431-2.169 2.663-2.662 1.844-0.731 6.219-0.563 8.256-0.563s6.419-0.162 8.256 0.563c1.225 0.487 2.169 1.431 2.663 2.662 0.731 1.844 0.563 6.219 0.563 8.256s0.169 6.419-0.563 8.256z"></path>
</symbol>
<symbol id="phone" viewBox="0 0 32 32">
<path d="M10.306 1.538c-0.481-1.163-1.75-1.781-2.963-1.45l-5.5 1.5c-1.087 0.3-1.844 1.287-1.844 2.412 0 15.462 12.537 28 28 28 1.125 0 2.113-0.756 2.413-1.844l1.5-5.5c0.331-1.212-0.288-2.481-1.45-2.962l-6-2.5c-1.019-0.425-2.2-0.131-2.894 0.725l-2.525 3.081c-4.4-2.081-7.963-5.644-10.044-10.044l3.081-2.519c0.856-0.7 1.15-1.875 0.725-2.894l-2.5-6z"></path>
</symbol>
<symbol id="xmark" viewBox="0 0 20 32">
<path d="M19.413 9.412c0.781-0.781 0.781-2.050 0-2.831s-2.050-0.781-2.831 0l-6.581 6.587-6.588-6.581c-0.781-0.781-2.050-0.781-2.831 0s-0.781 2.050 0 2.831l6.588 6.581-6.581 6.587c-0.781 0.781-0.781 2.050 0 2.831s2.050 0.781 2.831 0l6.581-6.588 6.587 6.581c0.781 0.781 2.050 0.781 2.831 0s0.781-2.050 0-2.831l-6.588-6.581 6.581-6.588z"></path>
</symbol>
<symbol id="dog" viewBox="0 0 36 32">
<path d="M19.35 9.906l1.444-8.669c0.119-0.713 0.738-1.238 1.462-1.238 0.469 0 0.906 0.219 1.188 0.594l1.056 1.406h3.256c0.794 0 1.556 0.319 2.119 0.881l1.125 1.119h3.5c0.831 0 1.5 0.669 1.5 1.5v1.5c0 2.763-2.237 5-5 5h-4.331l-0.319 1.906-7-4zM26 16.006v13.994c0 1.106-0.894 2-2 2h-2c-1.106 0-2-0.894-2-2v-7.2c-1.5 0.769-3.2 1.2-5 1.2s-3.5-0.431-5-1.2v7.2c0 1.106-0.894 2-2 2h-2c-1.106 0-2-0.894-2-2v-14.387c-1.8-0.681-3.212-2.206-3.7-4.156l-0.237-0.969c-0.269-1.069 0.381-2.156 1.456-2.425s2.156 0.381 2.425 1.456l0.244 0.969c0.219 0.887 1.019 1.512 1.938 1.512h12.863l7.012 4.006zM29 5c0-0.552-0.448-1-1-1s-1 0.448-1 1v0c0 0.552 0.448 1 1 1s1-0.448 1-1v0z"></path>
</symbol>
</defs>
</svg>
